<mxfile host="app.diagrams.net" modified="2023-12-03T22:20:45.056Z" agent="Mozilla/5.0 (X11; Linux x86_64; rv:120.0) Gecko/20100101 Firefox/120.0" etag="qocxQG_7T5x6KZWKCg-O" version="22.1.5" type="device">
  <diagram name="Page-1" id="hVSCfA0EWm8I-HKYsj_u">
    <mxGraphModel dx="794" dy="782" grid="1" gridSize="10" guides="1" tooltips="1" connect="1" arrows="1" fold="1" page="1" pageScale="1" pageWidth="850" pageHeight="1100" math="0" shadow="0">
      <root>
        <mxCell id="0" />
        <mxCell id="1" parent="0" />
        <mxCell id="tm4QmoOC2KP60FhGG2vQ-2" value="" style="shape=umlActor;verticalLabelPosition=bottom;verticalAlign=top;html=1;outlineConnect=0;" parent="1" vertex="1">
          <mxGeometry x="80" y="40" width="20" height="40" as="geometry" />
        </mxCell>
        <mxCell id="tm4QmoOC2KP60FhGG2vQ-8" style="edgeStyle=orthogonalEdgeStyle;rounded=0;orthogonalLoop=1;jettySize=auto;html=1;" parent="1" source="tm4QmoOC2KP60FhGG2vQ-4" edge="1">
          <mxGeometry relative="1" as="geometry">
            <mxPoint x="160" y="400" as="targetPoint" />
          </mxGeometry>
        </mxCell>
        <mxCell id="tm4QmoOC2KP60FhGG2vQ-4" value="User" style="rounded=1;whiteSpace=wrap;html=1;" parent="1" vertex="1">
          <mxGeometry x="120" y="40" width="80" height="40" as="geometry" />
        </mxCell>
        <mxCell id="tm4QmoOC2KP60FhGG2vQ-9" style="edgeStyle=orthogonalEdgeStyle;rounded=0;orthogonalLoop=1;jettySize=auto;html=1;" parent="1" source="tm4QmoOC2KP60FhGG2vQ-5" edge="1">
          <mxGeometry relative="1" as="geometry">
            <mxPoint x="320" y="400" as="targetPoint" />
          </mxGeometry>
        </mxCell>
        <mxCell id="tm4QmoOC2KP60FhGG2vQ-5" value="UI" style="rounded=1;whiteSpace=wrap;html=1;" parent="1" vertex="1">
          <mxGeometry x="280" y="40" width="80" height="40" as="geometry" />
        </mxCell>
        <mxCell id="tm4QmoOC2KP60FhGG2vQ-10" style="edgeStyle=orthogonalEdgeStyle;rounded=0;orthogonalLoop=1;jettySize=auto;html=1;" parent="1" source="tm4QmoOC2KP60FhGG2vQ-6" edge="1">
          <mxGeometry relative="1" as="geometry">
            <mxPoint x="480" y="400" as="targetPoint" />
          </mxGeometry>
        </mxCell>
        <mxCell id="tm4QmoOC2KP60FhGG2vQ-6" value="Axum" style="rounded=1;whiteSpace=wrap;html=1;" parent="1" vertex="1">
          <mxGeometry x="440" y="40" width="80" height="40" as="geometry" />
        </mxCell>
        <mxCell id="tm4QmoOC2KP60FhGG2vQ-11" style="edgeStyle=orthogonalEdgeStyle;rounded=0;orthogonalLoop=1;jettySize=auto;html=1;" parent="1" source="tm4QmoOC2KP60FhGG2vQ-7" edge="1">
          <mxGeometry relative="1" as="geometry">
            <mxPoint x="640" y="400" as="targetPoint" />
          </mxGeometry>
        </mxCell>
        <mxCell id="tm4QmoOC2KP60FhGG2vQ-7" value="Overpass API" style="rounded=1;whiteSpace=wrap;html=1;" parent="1" vertex="1">
          <mxGeometry x="600" y="40" width="80" height="40" as="geometry" />
        </mxCell>
        <mxCell id="tm4QmoOC2KP60FhGG2vQ-16" value="" style="endArrow=classic;html=1;rounded=0;" parent="1" edge="1">
          <mxGeometry width="50" height="50" relative="1" as="geometry">
            <mxPoint x="160" y="120" as="sourcePoint" />
            <mxPoint x="320" y="120" as="targetPoint" />
          </mxGeometry>
        </mxCell>
        <mxCell id="tm4QmoOC2KP60FhGG2vQ-23" value="getCoordinates(city, item)" style="edgeLabel;html=1;align=center;verticalAlign=middle;resizable=0;points=[];" parent="tm4QmoOC2KP60FhGG2vQ-16" vertex="1" connectable="0">
          <mxGeometry x="-0.1353" y="-2" relative="1" as="geometry">
            <mxPoint x="11" y="-12" as="offset" />
          </mxGeometry>
        </mxCell>
        <mxCell id="tm4QmoOC2KP60FhGG2vQ-17" value="" style="endArrow=classic;html=1;rounded=0;" parent="1" edge="1">
          <mxGeometry width="50" height="50" relative="1" as="geometry">
            <mxPoint x="320" y="140" as="sourcePoint" />
            <mxPoint x="480" y="140" as="targetPoint" />
          </mxGeometry>
        </mxCell>
        <mxCell id="tm4QmoOC2KP60FhGG2vQ-24" value="handleRequest(request)" style="edgeLabel;html=1;align=center;verticalAlign=middle;resizable=0;points=[];" parent="tm4QmoOC2KP60FhGG2vQ-17" vertex="1" connectable="0">
          <mxGeometry x="0.0026" relative="1" as="geometry">
            <mxPoint y="-10" as="offset" />
          </mxGeometry>
        </mxCell>
        <mxCell id="tm4QmoOC2KP60FhGG2vQ-18" value="" style="endArrow=classic;html=1;rounded=0;" parent="1" edge="1">
          <mxGeometry width="50" height="50" relative="1" as="geometry">
            <mxPoint x="480" y="160" as="sourcePoint" />
            <mxPoint x="640" y="160" as="targetPoint" />
          </mxGeometry>
        </mxCell>
        <mxCell id="tm4QmoOC2KP60FhGG2vQ-25" value="query_item(item)" style="edgeLabel;html=1;align=center;verticalAlign=middle;resizable=0;points=[];" parent="tm4QmoOC2KP60FhGG2vQ-18" vertex="1" connectable="0">
          <mxGeometry x="-0.1957" relative="1" as="geometry">
            <mxPoint x="16" y="-10" as="offset" />
          </mxGeometry>
        </mxCell>
        <mxCell id="tm4QmoOC2KP60FhGG2vQ-21" style="edgeStyle=orthogonalEdgeStyle;rounded=0;orthogonalLoop=1;jettySize=auto;html=1;" parent="1" source="tm4QmoOC2KP60FhGG2vQ-19" edge="1">
          <mxGeometry relative="1" as="geometry">
            <mxPoint x="800" y="400" as="targetPoint" />
          </mxGeometry>
        </mxCell>
        <mxCell id="tm4QmoOC2KP60FhGG2vQ-19" value="SQLite" style="rounded=1;whiteSpace=wrap;html=1;" parent="1" vertex="1">
          <mxGeometry x="760" y="40" width="80" height="40" as="geometry" />
        </mxCell>
        <mxCell id="tm4QmoOC2KP60FhGG2vQ-20" value="" style="shape=datastore;whiteSpace=wrap;html=1;fillColor=#60a917;fontColor=#ffffff;strokeColor=#2D7600;" parent="1" vertex="1">
          <mxGeometry x="850" y="45" width="30" height="30" as="geometry" />
        </mxCell>
        <mxCell id="tm4QmoOC2KP60FhGG2vQ-22" value="" style="endArrow=classic;html=1;rounded=0;" parent="1" edge="1">
          <mxGeometry width="50" height="50" relative="1" as="geometry">
            <mxPoint x="640" y="180" as="sourcePoint" />
            <mxPoint x="800" y="180" as="targetPoint" />
          </mxGeometry>
        </mxCell>
        <mxCell id="tm4QmoOC2KP60FhGG2vQ-26" value="insert_data(item_coordinates)" style="edgeLabel;html=1;align=center;verticalAlign=middle;resizable=0;points=[];" parent="tm4QmoOC2KP60FhGG2vQ-22" vertex="1" connectable="0">
          <mxGeometry x="-0.2905" y="2" relative="1" as="geometry">
            <mxPoint x="23" y="-8" as="offset" />
          </mxGeometry>
        </mxCell>
        <mxCell id="tm4QmoOC2KP60FhGG2vQ-27" value="" style="endArrow=classic;html=1;rounded=0;" parent="1" edge="1">
          <mxGeometry width="50" height="50" relative="1" as="geometry">
            <mxPoint x="480" y="230" as="sourcePoint" />
            <mxPoint x="640" y="230" as="targetPoint" />
          </mxGeometry>
        </mxCell>
        <mxCell id="tm4QmoOC2KP60FhGG2vQ-28" value="query_city_boundaries(city)" style="edgeLabel;html=1;align=center;verticalAlign=middle;resizable=0;points=[];" parent="tm4QmoOC2KP60FhGG2vQ-27" vertex="1" connectable="0">
          <mxGeometry x="-0.1957" relative="1" as="geometry">
            <mxPoint x="16" y="-10" as="offset" />
          </mxGeometry>
        </mxCell>
        <mxCell id="tm4QmoOC2KP60FhGG2vQ-29" value="" style="endArrow=classic;html=1;rounded=0;" parent="1" edge="1">
          <mxGeometry width="50" height="50" relative="1" as="geometry">
            <mxPoint x="640" y="250" as="sourcePoint" />
            <mxPoint x="800" y="250" as="targetPoint" />
          </mxGeometry>
        </mxCell>
        <mxCell id="tm4QmoOC2KP60FhGG2vQ-30" value="insert_data(city_boundaries)" style="edgeLabel;html=1;align=center;verticalAlign=middle;resizable=0;points=[];" parent="tm4QmoOC2KP60FhGG2vQ-29" vertex="1" connectable="0">
          <mxGeometry x="-0.1957" relative="1" as="geometry">
            <mxPoint x="16" y="-10" as="offset" />
          </mxGeometry>
        </mxCell>
        <mxCell id="tm4QmoOC2KP60FhGG2vQ-31" value="" style="endArrow=classic;html=1;rounded=0;edgeStyle=orthogonalEdgeStyle;curved=1;" parent="1" edge="1">
          <mxGeometry width="50" height="50" relative="1" as="geometry">
            <mxPoint x="480" y="300" as="sourcePoint" />
            <mxPoint x="480" y="330" as="targetPoint" />
            <Array as="points">
              <mxPoint x="520" y="300" />
              <mxPoint x="520" y="330" />
            </Array>
          </mxGeometry>
        </mxCell>
        <mxCell id="tm4QmoOC2KP60FhGG2vQ-32" value="pipe_and_filter(city, item)" style="edgeLabel;html=1;align=center;verticalAlign=middle;resizable=0;points=[];" parent="tm4QmoOC2KP60FhGG2vQ-31" vertex="1" connectable="0">
          <mxGeometry x="-0.0291" relative="1" as="geometry">
            <mxPoint x="50" as="offset" />
          </mxGeometry>
        </mxCell>
        <mxCell id="tm4QmoOC2KP60FhGG2vQ-33" value="" style="endArrow=classic;html=1;rounded=0;dashed=1;" parent="1" edge="1">
          <mxGeometry width="50" height="50" relative="1" as="geometry">
            <mxPoint x="800" y="210" as="sourcePoint" />
            <mxPoint x="640" y="210" as="targetPoint" />
          </mxGeometry>
        </mxCell>
        <mxCell id="tm4QmoOC2KP60FhGG2vQ-35" value="item_coordinates" style="edgeLabel;html=1;align=center;verticalAlign=middle;resizable=0;points=[];" parent="tm4QmoOC2KP60FhGG2vQ-33" vertex="1" connectable="0">
          <mxGeometry x="0.0571" y="1" relative="1" as="geometry">
            <mxPoint x="5" y="-11" as="offset" />
          </mxGeometry>
        </mxCell>
        <mxCell id="tm4QmoOC2KP60FhGG2vQ-34" value="" style="endArrow=classic;html=1;rounded=0;dashed=1;" parent="1" edge="1">
          <mxGeometry width="50" height="50" relative="1" as="geometry">
            <mxPoint x="800" y="280" as="sourcePoint" />
            <mxPoint x="640" y="280" as="targetPoint" />
          </mxGeometry>
        </mxCell>
        <mxCell id="tm4QmoOC2KP60FhGG2vQ-37" value="city_coordinates" style="edgeLabel;html=1;align=center;verticalAlign=middle;resizable=0;points=[];" parent="tm4QmoOC2KP60FhGG2vQ-34" vertex="1" connectable="0">
          <mxGeometry x="0.01" relative="1" as="geometry">
            <mxPoint y="-10" as="offset" />
          </mxGeometry>
        </mxCell>
        <mxCell id="tm4QmoOC2KP60FhGG2vQ-38" value="" style="endArrow=classic;html=1;rounded=0;dashed=1;" parent="1" edge="1">
          <mxGeometry width="50" height="50" relative="1" as="geometry">
            <mxPoint x="480" y="340" as="sourcePoint" />
            <mxPoint x="320" y="340" as="targetPoint" />
          </mxGeometry>
        </mxCell>
        <mxCell id="tm4QmoOC2KP60FhGG2vQ-39" value="city_item_coordinates" style="edgeLabel;html=1;align=center;verticalAlign=middle;resizable=0;points=[];" parent="tm4QmoOC2KP60FhGG2vQ-38" vertex="1" connectable="0">
          <mxGeometry x="0.01" relative="1" as="geometry">
            <mxPoint y="-10" as="offset" />
          </mxGeometry>
        </mxCell>
        <mxCell id="tm4QmoOC2KP60FhGG2vQ-40" value="" style="endArrow=classic;html=1;rounded=0;dashed=1;" parent="1" edge="1">
          <mxGeometry width="50" height="50" relative="1" as="geometry">
            <mxPoint x="320" y="360" as="sourcePoint" />
            <mxPoint x="160" y="360" as="targetPoint" />
          </mxGeometry>
        </mxCell>
        <mxCell id="tm4QmoOC2KP60FhGG2vQ-41" value="mark_coordinates_on_map()" style="edgeLabel;html=1;align=center;verticalAlign=middle;resizable=0;points=[];" parent="tm4QmoOC2KP60FhGG2vQ-40" vertex="1" connectable="0">
          <mxGeometry x="0.01" relative="1" as="geometry">
            <mxPoint y="-10" as="offset" />
          </mxGeometry>
        </mxCell>
      </root>
    </mxGraphModel>
  </diagram>
</mxfile>
